<svg xmlns="http://www.w3.org/2000/svg" viewBox="0 0 512 512" fill="none">
  <rect width="512" height="512" fill="#FFFFFF"/>
  <g transform="translate(103.15 51.73)">
    <path d="M 91.00 19.69 C 90.40 19.57 89.84 19.94 89.35 20.38 C 88.90 20.93 88.47 21.54 88.06 22.17 C 87.68 22.81 87.31 23.46 86.91 24.06 C 86.53 24.69 86.16 25.34 85.79 26.00 C 85.41 26.66 85.03 27.33 84.65 28.00 C 84.28 28.67 83.92 29.33 83.55 30.00 C 83.17 30.67 82.79 31.33 82.40 32.00 C 82.00 32.67 81.60 33.33 81.19 34.00 C 80.76 34.67 80.34 35.33 79.93 36.00 C 79.54 36.67 79.16 37.33 78.79 38.00 C 78.39 38.67 78.00 39.33 77.60 40.00 C 77.20 40.67 76.80 41.33 76.40 42.00 C 76.00 42.67 75.61 43.33 75.21 44.00 C 74.84 44.67 74.46 45.33 74.07 46.00 C 73.66 46.67 73.24 47.33 72.81 48.00 C 72.39 48.67 71.97 49.33 71.55 50.00 C 71.13 50.67 70.71 51.33 70.30 52.00 C 69.90 52.67 69.49 53.33 69.09 54.00 C 68.66 54.67 68.24 55.33 67.81 56.00 C 67.39 56.67 66.97 57.33 66.55 58.00 C 66.13 58.67 65.71 59.33 65.29 60.00 C 64.86 60.67 64.43 61.33 64.00 62.00 C 63.57 62.67 63.14 63.33 62.71 64.00 C 62.29 64.67 61.87 65.33 61.45 66.00 C 61.03 66.67 60.61 67.33 60.19 68.00 C 59.75 68.67 59.31 69.33 58.86 70.00 C 58.42 70.67 57.98 71.33 57.54 72.00 C 57.08 72.67 56.62 73.33 56.15 74.00 C 55.68 74.67 55.22 75.33 54.75 76.00 C 54.28 76.67 53.82 77.33 53.36 78.00 C 52.93 78.67 52.51 79.33 52.09 80.00 C 51.66 80.67 51.24 81.33 50.81 82.00 C 50.39 82.67 49.97 83.33 49.55 84.00 C 49.13 84.67 48.71 85.33 48.29 86.00 C 47.86 86.67 47.43 87.33 47.00 88.00 C 46.56 88.67 46.11 89.33 45.66 90.00 C 45.22 90.67 44.78 91.33 44.35 92.00 C 43.93 92.67 43.51 93.33 43.09 94.00 C 42.66 94.67 42.24 95.33 41.81 96.00 C 41.39 96.67 40.97 97.33 40.55 98.00 C 40.14 98.67 39.74 99.33 39.35 100.00 C 38.97 100.67 38.58 101.33 38.19 102.00 C 37.75 102.67 37.31 103.33 36.85 104.00 C 36.38 104.67 35.92 105.33 35.45 106.00 C 35.00 106.67 34.55 107.33 34.10 108.00 C 33.65 108.67 33.20 109.33 32.75 110.00 C 32.29 110.67 31.85 111.33 31.41 112.00 C 30.99 112.67 30.60 113.33 30.22 114.00 C 29.88 114.68 29.58 115.34 29.32 115.99 C 29.12 116.62 28.97 117.21 28.89 117.76 C 28.87 118.25 28.92 118.66 29.04 119.01 C 29.22 119.28 29.47 119.48 29.79 119.61 C 30.19 119.68 30.65 119.68 31.17 119.63 C 31.75 119.53 32.35 119.43 32.99 119.17 C 33.67 118.82 34.33 118.45 35.00 118.16 C 35.67 117.95 36.33 117.97 37.00 117.62 C 37.68 117.09 38.31 116.51 38.90 115.87 C 39.42 115.23 39.97 114.57 40.55 113.94 C 41.15 113.36 41.75 112.78 42.35 112.22 C 42.91 111.60 43.46 110.97 44.02 110.37 C 44.66 109.82 45.33 109.36 46.00 109.06 C 46.67 108.88 47.33 109.12 48.00 108.94 C 48.67 108.63 49.34 108.20 49.98 107.73 C 50.54 107.27 51.09 106.83 51.65 106.38 C 52.25 105.94 52.85 105.48 53.45 105.00 C 54.05 104.52 54.65 104.03 55.25 103.55 C 55.85 103.07 56.45 102.61 57.06 102.16 C 57.70 101.74 58.34 101.34 59.00 100.96 C 59.66 100.62 60.33 100.31 61.00 100.03 C 61.67 99.78 62.33 99.55 63.00 99.34 C 63.67 99.11 64.33 98.89 65.00 98.68 C 65.67 98.49 66.33 98.31 67.00 98.14 C 67.67 97.95 68.33 97.75 69.00 97.54 C 69.67 97.29 70.33 97.02 71.00 96.74 C 71.67 96.43 72.33 96.13 73.00 95.83 C 73.67 95.57 74.33 95.32 75.00 95.07 C 75.67 94.79 76.33 94.50 77.00 94.21 C 77.67 93.93 78.33 93.66 79.00 93.41 C 79.67 93.19 80.33 92.99 81.00 92.81 C 81.67 92.66 82.33 92.52 83.00 92.39 C 83.67 92.23 84.33 92.07 85.00 91.91 C 85.67 91.77 86.33 91.63 87.00 91.50 C 87.67 91.37 88.33 91.23 89.00 91.09 C 89.67 90.92 90.33 90.74 91.00 90.55 C 91.67 90.35 92.33 90.16 93.00 89.96 C 93.67 89.79 94.33 89.62 95.00 89.45 C 95.67 89.28 96.33 89.11 97.00 88.94 C 97.67 88.74 98.33 88.55 99.00 88.36 C 99.67 88.20 100.33 88.05 101.00 87.90 C 101.67 87.75 102.33 87.60 103.00 87.44 C 103.67 87.25 104.33 87.05 105.00 86.85 C 105.67 86.66 106.33 86.48 107.00 86.31 C 107.67 86.17 108.33 86.03 109.00 85.89 C 109.67 85.72 110.33 85.54 111.00 85.35 C 111.67 85.15 112.33 84.95 113.00 84.75 C 113.67 84.56 114.33 84.38 115.00 84.20 C 115.67 84.02 116.33 83.84 117.00 83.65 C 117.67 83.45 118.33 83.25 119.00 83.06 C 119.67 82.90 120.33 82.74 121.00 82.59 C 121.67 82.43 122.33 82.27 123.00 82.10 C 123.67 81.92 124.33 81.74 125.00 81.56 C 125.67 81.40 126.33 81.25 127.00 81.10 C 127.67 80.96 128.33 80.83 129.00 80.70 C 129.67 80.57 130.33 80.43 131.00 80.30 C 131.67 80.17 132.33 80.04 133.00 79.91 C 133.67 79.80 134.33 79.70 135.00 79.59 C 135.67 79.46 136.33 79.33 137.00 79.20 C 137.67 79.07 138.33 78.93 139.00 78.80 C 139.67 78.66 140.33 78.53 141.00 78.41 C 141.67 78.31 142.33 78.22 143.00 78.14 C 143.67 78.04 144.33 77.95 145.00 77.86 C 145.67 77.79 146.33 77.72 147.00 77.65 C 147.67 77.58 148.33 77.52 149.00 77.45 C 149.67 77.38 150.33 77.32 151.00 77.25 C 151.67 77.18 152.33 77.12 153.00 77.06 C 153.67 77.02 154.33 76.98 155.00 76.94 C 155.67 76.88 156.33 76.82 157.00 76.75 C 157.67 76.68 158.33 76.62 159.00 76.55 C 159.67 76.48 160.33 76.42 161.00 76.35 C 161.67 76.28 162.33 76.21 163.00 76.15 C 163.67 76.09 164.33 76.05 165.00 76.01 C 165.67 76.00 166.33 76.00 167.00 76.00 C 167.67 76.00 168.33 76.00 169.00 76.00 C 169.67 76.00 170.33 76.00 171.00 76.00 C 171.67 76.00 172.33 76.00 173.00 76.00 C 173.67 76.00 174.33 76.00 175.00 76.00 C 175.67 76.01 176.33 76.03 177.00 76.06 C 177.67 76.12 178.33 76.18 179.00 76.25 C 179.67 76.31 180.33 76.38 181.00 76.45 C 181.67 76.53 182.33 76.61 183.00 76.71 C 183.67 76.84 184.33 76.97 185.00 77.10 C 185.67 77.22 186.33 77.33 187.00 77.44 C 187.67 77.52 188.33 77.61 189.00 77.71 C 189.67 77.85 190.33 78.00 191.00 78.16 C 191.67 78.33 192.33 78.51 193.00 78.69 C 193.67 78.84 194.33 79.00 195.00 79.17 C 195.67 79.40 196.33 79.64 197.00 79.90 C 197.67 80.16 198.33 80.43 199.00 80.70 C 199.67 80.96 200.33 81.23 201.00 81.50 C 201.67 81.78 202.33 82.06 203.00 82.36 C 203.67 82.68 204.33 83.01 205.00 83.35 C 205.67 83.68 206.34 84.02 207.00 84.36 C 207.66 84.73 208.30 85.11 208.94 85.50 C 209.55 85.89 210.15 86.30 210.75 86.71 C 211.35 87.14 211.95 87.59 212.55 88.06 C 213.14 88.56 213.72 89.07 214.29 89.60 C 214.83 90.14 215.37 90.69 215.89 91.26 C 216.40 91.85 216.91 92.45 217.41 93.06 C 217.93 93.70 218.44 94.34 218.94 95.00 C 219.41 95.66 219.85 96.33 220.28 97.00 C 220.66 97.67 221.01 98.33 221.35 99.00 C 221.68 99.67 221.99 100.33 222.29 101.00 C 222.57 101.67 222.84 102.33 223.09 103.00 C 223.32 103.67 223.54 104.33 223.74 105.00 C 223.91 105.67 224.06 106.33 224.20 107.00 C 224.34 107.67 224.47 108.33 224.59 109.00 C 224.69 109.67 224.78 110.33 224.85 111.00 C 224.91 111.67 224.96 112.33 224.99 113.00 C 225.00 113.67 225.00 114.33 225.00 115.00 C 225.01 115.67 225.00 116.33 224.99 117.00 C 224.94 117.67 224.87 118.33 224.79 119.00 C 224.67 119.67 224.54 120.33 224.40 121.00 C 224.27 121.67 224.13 122.33 223.99 123.00 C 223.82 123.67 223.64 124.33 223.44 125.00 C 223.20 125.67 222.96 126.33 222.70 127.00 C 222.45 127.67 222.20 128.33 221.95 129.00 C 221.71 129.67 221.45 130.33 221.19 131.00 C 220.89 131.67 220.58 132.33 220.25 133.00 C 219.91 133.67 219.56 134.33 219.20 135.00 C 218.84 135.67 218.47 136.33 218.09 137.00 C 217.69 137.67 217.27 138.33 216.85 139.00 C 216.42 139.67 215.98 140.33 215.54 141.00 C 215.08 141.67 214.62 142.34 214.15 143.00 C 213.68 143.66 213.21 144.30 212.74 144.94 C 212.25 145.55 211.75 146.16 211.26 146.75 C 210.79 147.34 210.32 147.92 209.85 148.49 C 209.38 149.04 208.92 149.57 208.45 150.09 C 207.98 150.59 207.52 151.07 207.05 151.55 C 206.58 152.02 206.12 152.49 205.65 152.95 C 205.18 153.42 204.72 153.88 204.25 154.35 C 203.78 154.82 203.32 155.28 202.85 155.75 C 202.39 156.22 201.92 156.68 201.45 157.15 C 200.97 157.62 200.49 158.08 199.99 158.55 C 199.47 159.02 198.94 159.48 198.40 159.95 C 197.86 160.41 197.30 160.88 196.74 161.35 C 196.15 161.83 195.55 162.32 194.94 162.81 C 194.30 163.32 193.66 163.83 193.00 164.35 C 192.34 164.86 191.67 165.38 191.00 165.90 C 190.33 166.43 189.67 166.96 189.00 167.50 C 188.33 168.04 187.67 168.57 187.00 169.09 C 186.33 169.59 185.67 170.07 185.00 170.55 C 184.33 171.02 183.67 171.49 183.00 171.95 C 182.33 172.42 181.67 172.88 181.00 173.34 C 180.33 173.78 179.67 174.22 179.00 174.65 C 178.33 175.07 177.67 175.49 177.00 175.91 C 176.33 176.34 175.67 176.76 175.00 177.19 C 174.33 177.61 173.67 178.03 173.00 178.45 C 172.33 178.87 171.67 179.29 171.00 179.70 C 170.33 180.09 169.67 180.47 169.00 180.85 C 168.33 181.23 167.67 181.61 167.00 181.99 C 166.33 182.35 165.67 182.70 165.00 183.05 C 164.33 183.39 163.67 183.72 163.00 184.05 C 162.33 184.37 161.67 184.68 161.00 185.00 C 160.33 185.33 159.67 185.66 159.00 186.00 C 158.33 186.34 157.67 186.67 157.00 187.00 C 156.33 187.32 155.67 187.64 155.00 187.95 C 154.33 188.27 153.67 188.58 153.00 188.90 C 152.33 189.22 151.67 189.53 151.00 189.84 C 150.33 190.13 149.67 190.42 149.00 190.71 C 148.33 191.02 147.67 191.33 147.00 191.64 C 146.33 191.95 145.67 192.25 145.00 192.55 C 144.33 192.84 143.67 193.12 143.00 193.40 C 142.33 193.67 141.67 193.94 141.00 194.21 C 140.33 194.50 139.67 194.79 139.00 195.07 C 138.33 195.32 137.67 195.57 137.00 195.81 C 136.33 196.07 135.67 196.33 135.00 196.60 C 134.33 196.87 133.67 197.13 133.00 197.39 C 132.33 197.62 131.67 197.84 131.00 198.05 C 130.33 198.26 129.67 198.46 129.00 198.66 C 128.33 198.89 127.66 199.11 126.99 199.29 C 126.32 199.43 125.65 199.55 124.98 199.78 C 124.29 200.05 123.55 200.44 123.00 200.31 C 122.51 199.90 122.10 199.50 121.69 199.00 C 121.52 198.45 121.78 197.71 122.01 197.02 C 122.23 196.35 122.39 195.68 122.57 195.01 C 122.77 194.34 123.01 193.67 123.24 193.00 C 123.45 192.33 123.67 191.67 123.90 191.00 C 124.13 190.33 124.37 189.67 124.61 189.00 C 124.87 188.33 125.13 187.67 125.39 187.00 C 125.63 186.33 125.87 185.67 126.10 185.00 C 126.32 184.33 126.54 183.67 126.76 183.00 C 126.99 182.33 127.22 181.67 127.45 181.00 C 127.68 180.33 127.91 179.67 128.14 179.00 C 128.35 178.33 128.55 177.67 128.75 177.00 C 128.95 176.33 129.15 175.67 129.36 175.00 C 129.60 174.33 129.84 173.67 130.09 173.00 C 130.32 172.33 130.54 171.67 130.75 171.00 C 130.95 170.33 131.15 169.67 131.36 169.00 C 131.60 168.33 131.85 167.67 132.10 167.00 C 132.35 166.33 132.60 165.67 132.84 165.00 C 133.05 164.33 133.25 163.67 133.45 163.00 C 133.66 162.33 133.88 161.67 134.10 161.00 C 134.33 160.33 134.57 159.67 134.80 159.00 C 135.02 158.33 135.24 157.67 135.45 157.00 C 135.66 156.33 135.88 155.67 136.11 155.00 C 136.37 154.33 136.63 153.67 136.90 153.00 C 137.15 152.33 137.40 151.67 137.65 151.00 C 137.88 150.33 138.12 149.67 138.35 149.00 C 138.60 148.33 138.85 147.67 139.10 147.00 C 139.37 146.33 139.63 145.67 139.89 145.00 C 140.12 144.33 140.34 143.67 140.56 143.00 C 140.80 142.33 141.05 141.67 141.30 141.00 C 141.57 140.33 141.83 139.67 142.09 139.00 C 142.32 138.33 142.54 137.67 142.76 137.00 C 143.00 136.33 143.24 135.67 143.50 135.00 C 143.78 134.33 144.06 133.67 144.35 133.00 C 144.64 132.33 144.92 131.67 145.20 131.00 C 145.47 130.33 145.73 129.67 146.00 129.00 C 146.28 128.33 146.57 127.67 146.85 127.00 C 147.13 126.33 147.39 125.67 147.64 125.00 C 147.85 124.33 148.03 123.67 148.19 123.00 C 148.33 122.33 148.44 121.67 148.52 121.00 C 148.58 120.33 148.60 119.67 148.59 119.00 C 148.55 118.33 148.48 117.67 148.39 117.00 C 148.27 116.33 148.14 115.67 147.99 115.00 C 147.82 114.33 147.64 113.67 147.44 113.00 C 147.22 112.33 146.99 111.67 146.75 111.00 C 146.50 110.33 146.23 109.67 145.94 109.01 C 145.62 108.38 145.26 107.76 144.88 107.16 C 144.45 106.59 143.98 106.04 143.49 105.51 C 142.96 105.01 142.41 104.52 141.84 104.06 C 141.24 103.62 140.62 103.20 140.00 102.80 C 139.38 102.41 138.76 102.03 138.15 101.66 C 137.55 101.32 136.95 100.98 136.35 100.64 C 135.75 100.27 135.15 99.89 134.55 99.50 C 133.95 99.10 133.35 98.70 132.75 98.29 C 132.15 97.86 131.55 97.44 130.94 97.03 C 130.30 96.64 129.66 96.29 129.00 95.96 C 128.34 95.67 127.67 95.43 127.00 95.25 C 126.33 95.17 125.67 95.17 125.00 95.24 C 124.33 95.38 123.67 95.60 123.00 95.90 C 122.33 96.28 121.67 96.72 121.00 97.22 C 120.33 97.79 119.66 98.38 119.00 99.00 C 118.34 99.62 117.70 100.24 117.06 100.85 C 116.45 101.44 115.85 102.02 115.26 102.59 C 114.69 103.13 114.14 103.67 113.61 104.20 C 113.11 104.73 112.62 105.27 112.16 105.80 C 111.72 106.33 111.31 106.87 110.91 107.41 C 110.54 107.98 110.19 108.56 109.86 109.15 C 109.57 109.76 109.30 110.38 109.06 111.01 C 108.85 111.67 108.67 112.33 108.51 113.00 C 108.37 113.67 108.26 114.33 108.16 115.00 C 108.10 115.67 108.05 116.33 108.01 117.00 C 107.99 117.67 107.97 118.33 107.94 119.00 C 107.87 119.67 107.79 120.33 107.69 121.00 C 107.57 121.67 107.44 122.33 107.29 123.00 C 107.12 123.67 106.94 124.33 106.75 125.00 C 106.54 125.67 106.32 126.33 106.09 127.00 C 105.83 127.67 105.57 128.33 105.30 129.00 C 105.05 129.67 104.80 130.33 104.55 131.00 C 104.29 131.67 104.02 132.33 103.75 133.00 C 103.47 133.67 103.18 134.33 102.90 135.00 C 102.63 135.67 102.36 136.33 102.10 137.00 C 101.85 137.67 101.60 138.33 101.35 139.00 C 101.10 139.67 100.85 140.33 100.61 141.00 C 100.38 141.67 100.16 142.33 99.95 143.00 C 99.75 143.67 99.54 144.33 99.34 145.00 C 99.12 145.67 98.89 146.33 98.65 147.00 C 98.40 147.67 98.16 148.33 97.91 149.00 C 97.68 149.67 97.46 150.33 97.24 151.00 C 97.01 151.67 96.78 152.33 96.55 153.00 C 96.30 153.67 96.06 154.33 95.81 155.00 C 95.57 155.67 95.33 156.33 95.10 157.00 C 94.88 157.67 94.66 158.33 94.44 159.00 C 94.20 159.67 93.95 160.33 93.70 161.00 C 93.43 161.67 93.17 162.33 92.91 163.00 C 92.68 163.67 92.46 164.33 92.24 165.00 C 92.01 165.67 91.78 166.33 91.55 167.00 C 91.30 167.67 91.06 168.33 90.81 169.00 C 90.58 169.67 90.36 170.33 90.15 171.00 C 89.95 171.67 89.75 172.33 89.55 173.00 C 89.33 173.67 89.12 174.33 88.90 175.00 C 88.68 175.67 88.47 176.33 88.26 177.00 C 88.08 177.67 87.91 178.33 87.74 179.00 C 87.55 179.67 87.35 180.33 87.15 181.00 C 86.95 181.67 86.75 182.33 86.55 183.00 C 86.35 183.67 86.15 184.33 85.95 185.00 C 85.75 185.67 85.55 186.33 85.35 187.00 C 85.15 187.67 84.95 188.33 84.75 189.00 C 84.54 189.67 84.32 190.33 84.10 191.00 C 83.88 191.67 83.66 192.33 83.45 193.00 C 83.25 193.67 83.05 194.33 82.85 195.00 C 82.65 195.67 82.45 196.33 82.24 197.00 C 82.01 197.67 81.79 198.33 81.56 199.00 C 81.36 199.68 81.17 200.35 80.99 201.02 C 80.79 201.69 80.56 202.36 80.34 203.03 C 80.13 203.72 80.01 204.50 79.62 204.94 C 79.09 205.21 78.57 205.44 78.00 205.62 C 77.40 205.66 76.67 205.10 76.00 205.12 C 75.33 205.31 74.66 205.59 74.00 205.98 C 73.37 206.47 72.79 207.01 72.26 207.59 C 71.70 208.07 71.17 208.59 70.66 209.16 C 70.18 209.76 69.74 210.37 69.32 211.01 C 68.95 211.67 68.62 212.33 68.34 213.00 C 68.12 213.67 67.97 214.33 67.89 215.00 C 67.88 215.67 67.95 216.34 68.09 217.00 C 68.30 217.66 68.56 218.30 68.89 218.94 C 69.28 219.55 69.70 220.15 70.15 220.75 C 70.62 221.35 71.08 221.95 71.54 222.55 C 71.96 223.15 72.33 223.75 72.66 224.35 C 72.91 224.95 73.09 225.55 73.21 226.15 C 73.27 226.76 73.27 227.38 73.23 228.01 C 73.14 228.67 73.03 229.33 72.89 230.00 C 72.72 230.67 72.54 231.33 72.34 232.00 C 72.11 232.67 71.89 233.33 71.66 234.00 C 71.47 234.67 71.28 235.33 71.11 236.00 C 70.96 236.67 70.80 237.33 70.64 238.00 C 70.45 238.67 70.25 239.33 70.05 240.00 C 69.85 240.67 69.65 241.33 69.46 242.00 C 69.30 242.67 69.14 243.33 68.99 244.00 C 68.81 244.67 68.63 245.33 68.45 246.00 C 68.27 246.67 68.09 247.33 67.91 248.00 C 67.76 248.67 67.60 249.33 67.45 250.00 C 67.29 250.67 67.12 251.33 66.94 252.00 C 66.74 252.67 66.55 253.33 66.36 254.00 C 66.20 254.67 66.05 255.33 65.90 256.00 C 65.75 256.67 65.60 257.33 65.44 258.00 C 65.25 258.67 65.05 259.33 64.85 260.00 C 64.66 260.67 64.48 261.33 64.31 262.00 C 64.17 262.67 64.03 263.33 63.89 264.00 C 63.72 264.67 63.54 265.33 63.35 266.00 C 63.16 266.67 62.98 267.33 62.81 268.00 C 62.68 268.67 62.56 269.33 62.46 270.00 C 62.37 270.67 62.28 271.33 62.19 272.00 C 62.07 272.67 61.94 273.33 61.80 274.00 C 61.67 274.67 61.53 275.33 61.40 276.00 C 61.27 276.67 61.13 277.33 61.00 278.00 C 60.87 278.67 60.73 279.33 60.60 280.00 C 60.47 280.67 60.34 281.33 60.20 282.00 C 60.05 282.67 59.90 283.33 59.75 284.00 C 59.60 284.67 59.45 285.33 59.30 286.00 C 59.17 286.67 59.03 287.33 58.90 288.00 C 58.75 288.67 58.60 289.33 58.44 290.00 C 58.26 290.67 58.08 291.33 57.91 292.00 C 57.77 292.68 57.66 293.34 57.58 293.99 C 57.54 294.62 57.47 295.28 57.37 295.94 C 57.25 296.60 57.15 297.24 57.16 297.87 C 57.31 298.41 57.64 298.88 58.06 298.88 C 58.61 298.60 59.02 298.16 59.33 297.61 C 59.61 297.01 59.83 296.39 59.99 295.76 C 60.22 295.22 60.44 294.62 60.65 293.99 C 60.86 293.34 61.06 292.68 61.25 292.00 C 61.44 291.33 61.62 290.67 61.80 290.00 C 61.98 289.33 62.16 288.67 62.36 288.00 C 62.60 287.33 62.84 286.67 63.10 286.00 C 63.36 285.32 63.64 284.65 63.86 283.98 C 64.07 283.31 64.33 282.64 64.62 281.96 C 64.88 281.28 65.00 280.49 65.38 280.06 C 65.88 279.66 66.52 279.28 66.94 279.44 C 67.35 279.59 67.68 280.33 67.88 281.00 C 67.94 281.59 67.57 282.31 67.39 282.98 C 67.27 283.66 67.21 284.32 67.18 284.99 C 67.13 285.66 67.03 286.33 66.91 287.00 C 66.81 287.67 66.70 288.33 66.59 289.00 C 66.46 289.67 66.33 290.33 66.20 291.00 C 66.07 291.67 65.94 292.33 65.80 293.00 C 65.65 293.67 65.50 294.33 65.35 295.00 C 65.20 295.67 65.04 296.33 64.89 297.00 C 64.73 297.67 64.57 298.33 64.41 299.00 C 64.27 299.67 64.13 300.33 64.00 301.00 C 63.87 301.67 63.73 302.33 63.59 303.00 C 63.43 303.67 63.27 304.33 63.11 305.00 C 62.97 305.67 62.84 306.33 62.71 307.00 C 62.61 307.68 62.51 308.35 62.42 309.02 C 62.29 309.69 62.12 310.37 62.01 311.05 C 61.93 311.74 61.90 312.56 61.62 312.88 C 61.35 313.19 60.70 313.19 60.38 312.88 C 60.05 312.56 59.90 311.71 59.64 311.04 C 59.31 310.53 58.91 310.24 58.51 310.20 C 58.16 310.37 57.87 310.68 57.59 310.75 C 57.29 310.93 57.00 311.20 56.71 311.55 C 56.44 312.00 56.20 312.50 55.97 313.08 C 55.80 313.69 55.64 314.33 55.50 315.00 C 55.36 315.66 55.23 316.33 55.10 317.00 C 54.95 317.67 54.80 318.33 54.65 319.00 C 54.50 319.67 54.35 320.33 54.20 321.00 C 54.06 321.67 53.93 322.33 53.80 323.00 C 53.67 323.67 53.53 324.33 53.40 325.00 C 53.27 325.67 53.13 326.33 53.00 327.00 C 52.87 327.67 52.73 328.33 52.60 329.00 C 52.47 329.67 52.33 330.33 52.20 331.00 C 52.07 331.67 51.93 332.33 51.80 333.00 C 51.66 333.67 51.53 334.33 51.41 335.00 C 51.31 335.67 51.22 336.33 51.15 337.00 C 51.09 337.67 51.04 338.33 51.01 339.00 C 51.00 339.67 51.00 340.33 51.00 341.00 C 51.00 341.67 51.00 342.33 51.00 343.00 C 51.01 343.67 51.03 344.33 51.06 345.00 C 51.13 345.67 51.21 346.33 51.31 347.00 C 51.43 347.67 51.56 348.33 51.70 349.00 C 51.83 349.67 51.96 350.33 52.10 351.00 C 52.23 351.67 52.37 352.34 52.51 352.99 C 52.71 353.65 52.89 354.32 53.00 354.98 C 53.04 355.64 53.04 356.30 53.06 356.94 C 53.24 357.44 53.63 357.70 54.18 358.00 C 54.75 358.37 55.21 358.88 55.63 359.35 C 56.14 359.79 56.60 360.32 56.88 361.00 C 56.94 361.66 56.57 362.33 56.39 363.00 C 56.27 363.67 56.21 364.33 56.18 365.00 C 56.13 365.67 56.03 366.33 55.91 367.00 C 55.82 367.67 55.73 368.33 55.65 369.00 C 55.58 369.67 55.51 370.33 55.45 371.00 C 55.38 371.67 55.32 372.33 55.25 373.00 C 55.18 373.67 55.12 374.33 55.06 375.00 C 55.03 375.67 55.01 376.33 55.00 377.00 C 55.00 377.67 55.00 378.33 55.00 379.00 C 55.00 379.67 55.00 380.33 55.00 381.00 C 55.00 381.67 55.00 382.34 55.00 383.00 C 55.00 383.67 55.00 384.33 55.00 385.00 C 55.01 385.67 55.01 386.34 55.01 387.00 C 55.04 387.65 55.05 388.35 55.38 388.62 C 55.70 388.90 56.38 388.81 56.84 388.47 C 57.19 387.97 57.42 387.38 57.64 386.77 C 57.85 386.14 58.04 385.50 58.29 384.92 C 58.51 384.31 58.71 383.67 58.89 383.00 C 59.04 382.34 59.17 381.67 59.30 381.00 C 59.43 380.33 59.57 379.67 59.70 379.00 C 59.84 378.33 59.97 377.67 60.10 377.00 C 60.22 376.33 60.34 375.67 60.44 375.00 C 60.52 374.33 60.59 373.67 60.65 373.00 C 60.72 372.33 60.79 371.67 60.85 371.00 C 60.90 370.33 60.95 369.67 60.99 369.00 C 61.01 368.33 61.03 367.67 61.06 367.00 C 61.12 366.33 61.18 365.67 61.25 365.00 C 61.31 364.33 61.38 363.67 61.45 363.00 C 61.53 362.33 61.61 361.67 61.71 361.00 C 61.83 360.33 61.97 359.67 62.11 359.00 C 62.27 358.33 62.43 357.67 62.60 357.00 C 62.77 356.33 62.96 355.67 63.15 355.00 C 63.36 354.33 63.58 353.67 63.81 353.00 C 64.05 352.33 64.30 351.67 64.55 351.00 C 64.81 350.32 65.08 349.66 65.36 349.02 C 65.63 348.36 65.89 347.70 66.12 347.04 C 66.39 346.39 66.70 345.74 67.06 345.12 C 67.49 344.81 68.35 344.81 68.56 345.12 C 68.77 345.44 68.50 346.26 68.35 346.95 C 68.24 347.63 68.18 348.32 68.23 348.98 C 68.39 349.56 68.67 349.99 68.83 350.45 C 68.90 351.03 69.04 351.58 69.27 352.08 C 69.64 352.48 70.13 352.68 70.69 352.62 C 71.14 352.35 71.42 351.65 71.81 351.00 C 72.20 350.34 72.56 349.67 72.85 349.00 C 73.09 348.33 73.33 347.67 73.59 347.00 C 73.83 346.34 74.05 345.67 74.24 345.00 C 74.39 344.33 74.53 343.67 74.65 343.00 C 74.77 342.33 74.89 341.67 75.01 341.00 C 75.17 340.33 75.33 339.67 75.49 339.00 C 75.63 338.33 75.76 337.67 75.90 337.00 C 76.05 336.33 76.20 335.67 76.36 335.00 C 76.55 334.33 76.74 333.67 76.94 333.00 C 77.11 332.33 77.28 331.67 77.45 331.00 C 77.62 330.33 77.79 329.67 77.96 329.00 C 78.15 328.33 78.35 327.67 78.55 327.00 C 78.74 326.33 78.94 325.67 79.15 325.00 C 79.36 324.33 79.58 323.67 79.81 323.00 C 80.06 322.33 80.30 321.67 80.54 321.00 C 80.73 320.33 80.92 319.67 81.09 319.00 C 81.24 318.33 81.40 317.67 81.56 317.00 C 81.75 316.33 81.95 315.67 82.15 315.00 C 82.35 314.33 82.55 313.67 82.75 313.00 C 82.95 312.33 83.15 311.67 83.36 311.00 C 83.60 310.33 83.85 309.67 84.11 309.00 C 84.40 308.33 84.69 307.67 84.99 307.00 C 85.26 306.33 85.54 305.67 85.81 305.00 C 86.10 304.33 86.39 303.67 86.69 303.00 C 86.97 302.33 87.26 301.67 87.55 301.00 C 87.85 300.33 88.15 299.67 88.45 299.00 C 88.74 298.33 89.03 297.67 89.31 297.00 C 89.61 296.33 89.90 295.67 90.17 295.00 C 90.41 294.33 90.64 293.67 90.86 293.00 C 91.10 292.33 91.35 291.67 91.60 291.00 C 91.85 290.33 92.10 289.67 92.34 289.00 C 92.56 288.33 92.78 287.67 93.00 287.00 C 93.23 286.33 93.47 285.67 93.71 285.00 C 93.97 284.33 94.23 283.67 94.49 283.00 C 94.72 282.33 94.94 281.67 95.15 281.00 C 95.35 280.33 95.56 279.67 95.76 279.00 C 95.99 278.33 96.22 277.67 96.45 277.00 C 96.68 276.33 96.91 275.67 97.14 275.00 C 97.35 274.33 97.55 273.67 97.75 273.00 C 97.95 272.33 98.15 271.67 98.36 271.00 C 98.60 270.33 98.84 269.67 99.09 269.00 C 99.32 268.33 99.53 267.67 99.74 267.00 C 99.91 266.33 100.09 265.67 100.26 265.00 C 100.47 264.33 100.68 263.67 100.91 263.00 C 101.16 262.33 101.39 261.67 101.62 261.00 C 101.81 260.33 101.99 259.67 102.16 259.00 C 102.35 258.33 102.55 257.67 102.75 257.00 C 102.95 256.33 103.15 255.67 103.35 255.00 C 103.55 254.33 103.75 253.67 103.95 253.00 C 104.15 252.33 104.35 251.67 104.55 251.00 C 104.75 250.33 104.95 249.67 105.15 249.00 C 105.36 248.33 105.58 247.67 105.81 247.00 C 106.06 246.33 106.30 245.67 106.54 245.00 C 106.75 244.33 106.95 243.67 107.15 243.00 C 107.35 242.33 107.55 241.67 107.76 241.00 C 107.99 240.33 108.22 239.67 108.45 239.00 C 108.68 238.33 108.91 237.67 109.14 237.00 C 109.35 236.33 109.55 235.67 109.75 235.00 C 109.95 234.33 110.15 233.67 110.36 233.00 C 110.60 232.33 110.84 231.67 111.09 231.00 C 111.31 230.33 111.53 229.67 111.75 229.00 C 111.96 228.33 112.18 227.66 112.42 227.00 C 112.72 226.34 113.05 225.69 113.42 225.08 C 113.84 224.50 114.28 223.97 114.75 223.48 C 115.21 223.03 115.71 222.63 116.22 222.28 C 116.79 221.96 117.39 221.70 118.01 221.48 C 118.66 221.30 119.33 221.17 120.00 221.08 C 120.67 221.03 121.33 221.00 122.00 221.00 C 122.67 220.99 123.34 220.99 124.00 221.01 C 124.66 221.05 125.30 221.12 125.94 221.21 C 126.55 221.34 127.15 221.49 127.75 221.68 C 128.35 221.90 128.95 222.14 129.55 222.40 C 130.15 222.67 130.75 222.93 131.35 223.20 C 131.95 223.46 132.55 223.70 133.15 223.92 C 133.76 224.10 134.38 224.23 135.01 224.34 C 135.67 224.41 136.33 224.46 137.00 224.47 C 137.67 224.46 138.33 224.41 139.00 224.35 C 139.67 224.27 140.33 224.19 141.00 224.09 C 141.67 223.98 142.33 223.87 143.00 223.76 C 143.67 223.67 144.33 223.58 145.00 223.49 C 145.67 223.37 146.33 223.24 147.00 223.10 C 147.67 222.95 148.33 222.80 149.00 222.64 C 149.67 222.46 150.33 222.29 151.00 222.11 C 151.67 221.97 152.33 221.83 153.00 221.69 C 153.67 221.53 154.33 221.37 155.00 221.21 C 155.67 221.06 156.33 220.90 157.00 220.74 C 157.67 220.56 158.33 220.39 159.00 220.21 C 159.67 220.06 160.33 219.90 161.00 219.74 C 161.67 219.54 162.33 219.32 163.00 219.10 C 163.67 218.88 164.33 218.66 165.00 218.44 C 165.67 218.21 166.33 217.99 167.00 217.76 C 167.67 217.54 168.33 217.32 169.00 217.09 C 169.67 216.83 170.33 216.57 171.00 216.30 C 171.67 216.05 172.33 215.80 173.00 215.55 C 173.67 215.30 174.33 215.05 175.00 214.80 C 175.67 214.54 176.33 214.27 177.00 214.00 C 177.67 213.73 178.33 213.47 179.00 213.20 C 179.67 212.94 180.33 212.67 181.00 212.39 C 181.67 212.08 182.33 211.78 183.00 211.46 C 183.67 211.16 184.33 210.85 185.00 210.55 C 185.67 210.26 186.33 209.97 187.00 209.69 C 187.67 209.39 188.33 209.10 189.00 208.80 C 189.67 208.50 190.33 208.21 191.00 207.91 C 191.67 207.63 192.33 207.34 193.00 207.04 C 193.67 206.72 194.33 206.39 195.00 206.04 C 195.67 205.67 196.33 205.29 197.00 204.90 C 197.67 204.50 198.33 204.10 199.00 203.70 C 199.67 203.30 200.33 202.90 201.00 202.50 C 201.67 202.11 202.33 201.73 203.00 201.35 C 203.67 200.96 204.33 200.58 205.00 200.21 C 205.67 199.86 206.33 199.53 207.00 199.21 C 207.67 198.93 208.33 198.66 209.00 198.41 C 209.67 198.17 210.33 197.93 211.00 197.70 C 211.67 197.46 212.33 197.23 213.00 197.00 C 213.67 196.79 214.33 196.57 215.00 196.35 C 215.67 196.13 216.33 195.89 217.00 195.63 C 217.67 195.32 218.33 194.99 219.00 194.64 C 219.67 194.27 220.33 193.89 221.00 193.50 C 221.67 193.11 222.33 192.70 223.00 192.29 C 223.67 191.85 224.33 191.40 225.00 190.94 C 225.67 190.44 226.33 189.93 227.00 189.41 C 227.67 188.91 228.33 188.40 229.00 187.89 C 229.67 187.36 230.33 186.83 231.00 186.30 C 231.67 185.76 232.33 185.23 233.00 184.71 C 233.67 184.22 234.33 183.76 235.00 183.31 C 235.67 182.91 236.33 182.52 237.00 182.15 C 237.67 181.77 238.33 181.39 239.00 181.00 C 239.67 180.61 240.33 180.20 241.00 179.79 C 241.67 179.36 242.33 178.91 243.00 178.44 C 243.67 177.94 244.33 177.43 244.99 176.90 C 245.62 176.36 246.24 175.81 246.85 175.25 C 247.44 174.70 248.02 174.15 248.59 173.60 C 249.14 173.06 249.67 172.53 250.19 172.00 C 250.69 171.47 251.17 170.94 251.65 170.40 C 252.12 169.86 252.59 169.30 253.06 168.74 C 253.56 168.15 254.07 167.55 254.60 166.94 C 255.14 166.30 255.69 165.66 256.26 165.00 C 256.85 164.34 257.45 163.67 258.06 163.00 C 258.69 162.33 259.32 161.67 259.94 161.00 C 260.54 160.33 261.12 159.67 261.69 159.00 C 262.23 158.33 262.74 157.67 263.23 157.00 C 263.67 156.33 264.10 155.67 264.50 155.00 C 264.89 154.33 265.27 153.67 265.64 153.00 C 266.00 152.33 266.35 151.67 266.70 151.00 C 267.05 150.33 267.40 149.67 267.75 149.00 C 268.09 148.33 268.42 147.67 268.75 147.00 C 269.08 146.33 269.42 145.67 269.75 145.00 C 270.09 144.33 270.42 143.67 270.74 143.00 C 271.03 142.33 271.29 141.67 271.54 141.00 C 271.75 140.33 271.96 139.67 272.15 139.00 C 272.35 138.33 272.56 137.67 272.76 137.00 C 272.99 136.33 273.21 135.67 273.43 135.00 C 273.60 134.33 273.76 133.67 273.91 133.00 C 274.08 132.33 274.26 131.67 274.45 131.00 C 274.66 130.33 274.88 129.67 275.10 129.00 C 275.32 128.33 275.54 127.67 275.74 127.00 C 275.90 126.33 276.06 125.67 276.20 125.00 C 276.35 124.33 276.50 123.67 276.65 123.00 C 276.81 122.33 276.96 121.67 277.10 121.00 C 277.23 120.33 277.34 119.67 277.44 119.00 C 277.52 118.33 277.59 117.67 277.65 117.00 C 277.72 116.33 277.79 115.67 277.85 115.00 C 277.91 114.33 277.95 113.67 277.99 113.00 C 278.00 112.33 278.00 111.67 278.00 111.00 C 278.00 110.33 278.00 109.67 278.00 109.00 C 278.00 108.33 278.00 107.67 278.00 107.00 C 278.00 106.33 278.00 105.67 278.00 105.00 C 278.00 104.33 278.00 103.67 278.00 103.00 C 278.00 102.33 278.00 101.67 277.99 101.00 C 277.95 100.33 277.91 99.67 277.85 99.00 C 277.79 98.33 277.72 97.67 277.65 97.00 C 277.57 96.33 277.49 95.67 277.39 95.00 C 277.27 94.33 277.14 93.67 276.99 93.00 C 276.82 92.33 276.64 91.67 276.46 91.00 C 276.31 90.33 276.15 89.67 275.99 89.00 C 275.80 88.33 275.60 87.67 275.39 87.00 C 275.15 86.33 274.91 85.67 274.66 85.00 C 274.44 84.33 274.22 83.67 273.99 83.00 C 273.74 82.33 273.47 81.67 273.19 81.00 C 272.89 80.33 272.57 79.67 272.25 79.00 C 271.92 78.33 271.59 77.67 271.25 77.00 C 270.92 76.33 270.58 75.67 270.24 75.01 C 269.87 74.38 269.49 73.76 269.11 73.15 C 268.74 72.55 268.37 71.95 268.00 71.35 C 267.63 70.75 267.26 70.15 266.89 69.55 C 266.51 68.95 266.13 68.35 265.75 67.76 C 265.36 67.20 264.96 66.64 264.55 66.09 C 264.14 65.53 263.72 64.97 263.29 64.41 C 262.85 63.87 262.40 63.33 261.94 62.80 C 261.44 62.27 260.93 61.73 260.40 61.20 C 259.86 60.67 259.31 60.13 258.74 59.59 C 258.15 59.03 257.55 58.47 256.94 57.91 C 256.30 57.36 255.66 56.80 255.00 56.24 C 254.34 55.66 253.67 55.08 253.00 54.51 C 252.33 53.96 251.67 53.43 251.00 52.91 C 250.33 52.41 249.67 51.93 249.00 51.45 C 248.33 50.98 247.67 50.51 247.00 50.06 C 246.33 49.63 245.67 49.21 245.00 48.81 C 244.33 48.44 243.67 48.09 243.00 47.75 C 242.33 47.41 241.67 47.08 241.00 46.75 C 240.33 46.43 239.67 46.12 239.00 45.81 C 238.33 45.53 237.67 45.26 237.00 44.99 C 236.33 44.70 235.67 44.41 235.00 44.11 C 234.33 43.82 233.67 43.53 233.00 43.25 C 232.33 42.98 231.67 42.71 231.00 42.45 C 230.33 42.20 229.67 41.95 229.00 41.71 C 228.33 41.47 227.67 41.23 227.00 41.00 C 226.33 40.77 225.67 40.56 225.00 40.35 C 224.33 40.16 223.67 39.98 223.00 39.81 C 222.33 39.65 221.67 39.50 221.00 39.35 C 220.33 39.20 219.67 39.04 219.00 38.89 C 218.33 38.73 217.67 38.57 217.00 38.41 C 216.33 38.27 215.67 38.13 215.00 38.00 C 214.33 37.86 213.67 37.73 213.00 37.60 C 212.33 37.48 211.67 37.37 211.00 37.26 C 210.33 37.17 209.67 37.08 209.00 37.00 C 208.33 36.91 207.67 36.83 207.00 36.75 C 206.33 36.68 205.67 36.61 205.00 36.54 C 204.33 36.44 203.67 36.32 203.00 36.20 C 202.33 36.07 201.67 35.93 201.00 35.80 C 200.33 35.68 199.67 35.56 199.00 35.46 C 198.33 35.38 197.67 35.31 197.00 35.25 C 196.33 35.18 195.67 35.12 195.00 35.06 C 194.33 35.03 193.67 35.01 193.00 35.00 C 192.33 34.99 191.67 35.00 191.00 35.01 C 190.33 35.05 189.67 35.09 189.00 35.15 C 188.33 35.21 187.67 35.28 187.00 35.35 C 186.33 35.42 185.67 35.48 185.00 35.55 C 184.33 35.61 183.67 35.68 183.00 35.75 C 182.33 35.83 181.67 35.91 181.00 36.00 C 180.33 36.09 179.67 36.17 179.00 36.25 C 178.33 36.32 177.67 36.39 177.00 36.45 C 176.33 36.52 175.67 36.58 175.00 36.65 C 174.33 36.72 173.67 36.79 173.00 36.85 C 172.33 36.90 171.67 36.95 171.00 37.00 C 170.33 37.04 169.67 37.09 169.00 37.15 C 168.33 37.22 167.67 37.31 167.00 37.41 C 166.33 37.53 165.67 37.66 165.00 37.80 C 164.33 37.93 163.67 38.07 163.00 38.20 C 162.33 38.33 161.67 38.47 161.00 38.60 C 160.33 38.74 159.67 38.87 159.00 39.00 C 158.33 39.12 157.67 39.23 157.00 39.34 C 156.33 39.43 155.67 39.52 155.00 39.61 C 154.33 39.73 153.67 39.87 153.00 40.01 C 152.33 40.18 151.67 40.36 151.00 40.54 C 150.33 40.69 149.67 40.85 149.00 41.00 C 148.33 41.15 147.67 41.31 147.00 41.48 C 146.33 41.69 145.67 41.91 145.00 42.14 C 144.33 42.35 143.67 42.55 143.00 42.74 C 142.33 42.91 141.67 43.08 141.00 43.26 C 140.33 43.47 139.67 43.68 139.00 43.91 C 138.33 44.16 137.67 44.39 137.00 44.62 C 136.33 44.81 135.67 44.99 135.00 45.16 C 134.33 45.35 133.67 45.55 133.00 45.76 C 132.33 46.00 131.67 46.25 131.00 46.50 C 130.33 46.75 129.67 47.00 129.00 47.24 C 128.33 47.46 127.67 47.68 127.00 47.91 C 126.33 48.17 125.67 48.43 125.00 48.70 C 124.33 48.97 123.67 49.24 123.00 49.50 C 122.33 49.75 121.67 50.00 121.00 50.25 C 120.33 50.50 119.67 50.75 119.00 51.00 C 118.33 51.27 117.67 51.53 117.00 51.80 C 116.33 52.05 115.67 52.30 115.00 52.55 C 114.33 52.80 113.67 53.05 113.00 53.30 C 112.33 53.56 111.67 53.83 111.00 54.10 C 110.33 54.38 109.67 54.66 109.00 54.96 C 108.33 55.28 107.67 55.61 107.00 55.95 C 106.33 56.28 105.67 56.61 105.00 56.95 C 104.33 57.30 103.67 57.65 103.00 58.00 C 102.33 58.35 101.67 58.70 101.00 59.05 C 100.33 59.39 99.67 59.72 99.00 60.05 C 98.33 60.37 97.67 60.69 97.00 61.00 C 96.33 61.32 95.67 61.63 95.00 61.95 C 94.33 62.27 93.67 62.58 93.00 62.90 C 92.32 63.23 91.66 63.54 91.00 63.82 C 90.34 64.07 89.68 64.37 89.01 64.64 C 88.35 64.92 87.69 65.21 87.03 65.46 C 86.42 65.55 85.81 65.38 85.75 64.94 C 85.69 64.50 86.22 63.72 86.52 63.03 C 86.81 62.36 87.18 61.69 87.51 61.02 C 87.81 60.35 88.11 59.68 88.44 59.00 C 88.74 58.33 89.05 57.67 89.36 57.00 C 89.68 56.33 89.98 55.67 90.29 55.00 C 90.56 54.33 90.84 53.67 91.11 53.00 C 91.41 52.33 91.70 51.67 91.99 51.00 C 92.26 50.33 92.51 49.67 92.74 49.00 C 92.94 48.33 93.12 47.67 93.30 47.00 C 93.48 46.33 93.66 45.67 93.84 45.00 C 94.01 44.33 94.18 43.67 94.35 43.00 C 94.51 42.33 94.66 41.67 94.80 41.00 C 94.94 40.33 95.07 39.67 95.20 39.00 C 95.34 38.33 95.47 37.67 95.59 37.00 C 95.69 36.33 95.78 35.67 95.84 35.00 C 95.86 34.33 95.86 33.67 95.84 33.00 C 95.79 32.33 95.72 31.67 95.64 31.00 C 95.54 30.33 95.42 29.67 95.30 29.00 C 95.18 28.33 95.04 27.67 94.89 27.00 C 94.71 26.33 94.51 25.66 94.29 25.00 C 94.03 24.34 93.74 23.72 93.53 23.06 C 93.29 22.41 93.04 21.76 92.72 21.12 C 92.28 20.50 91.68 19.98 91.00 19.69 Z" fill="#000000"/>
  </g>
</svg>